<svg xmlns="http://www.w3.org/2000/svg" xml:space="preserve" width="999.99994" height="806.24011" viewBox="0 0 999.99994 806.24011"><path d="M715.927-489.67c1.328 3.226 0 6.69-2.894 7.78-2.705 1.092-6.073-.569-7.402-3.795-1.139-3.226 0-6.737 2.894-7.829 2.942-1.09 6.263.617 7.402 3.843m-20.17 4.707c0 16.749-18.836 32.359-50.625 33.924-28.942 1.424-77.765-13.664-77.765-53.424 0-19.596 17.935-26.286 30.224-26.286 12.336 0 23.533 8.019 23.533 15.942 0 8.209-4.697 7.971-6.025 7.971-3.37 0-6.5-4.84-4.27-10.675 1.328-3.7-2.23-11.34-13.665-11.34-8.066 0-19.263 6.453-19.263 24.388 0 17.84 20.164 50.625 67.231 50.625 16.796 0 36.486-9.11 36.486-31.125 0-12.858-12.763-31.267-32.026-31.267 0 0 4.697 25.289 17.27 41.041 1.092 1.281-.474 2.467-2.23 1.281-40.14-25.526-34.967-100.634-80.469-100.634-4.46 0-21.493 1.044-21.493 14.234 0 0-.901 3.084 3.132 5.599 1.992 1.186 3.32 3.416 3.32 5.74 0 3.939-3.32 7.07-7.163 7.07-3.796 0-5.6-3.32-6.928-7.07-1.138-3.178-1.565-27.945 29.132-28.182 22.87-.285 55.797 15.562 63.863 57.125 0 0 47.731 5.077 47.731 35.063m201.458-46.63c-1.328-4.982-3.796-7.734-6.5-8.873-2.467-1.138-4.033.665-2.894 2.183 1.09 1.518 2.894 4.745 2.657 6.975-.19 2.941-2.895 4.65-2.895 4.65s-1.565.9-.474 2.561l5.836 9.537s2.04 3.796 2.704.807c.902-3.274 3.132-12.81 1.566-17.84m-34.067 14.85c.902 1.946 2.942 7.307 8.73 13.048 2.04 1.946 4.034 3.654 6.311 4.08 2.467.428 2.657-2.182 2.467-3.795-.474-1.613-1.376-4.507-3.606-7.07-2.04-2.562-4.697-5.503-6.927-6.927-2.277-1.328-4.033-2.23-5.836-2.23-1.566 0-2.04.95-1.139 2.895m43.936 30.318c-4.508-1.329-8.066-11.198-10.533-15.657-3.606-6.548-12.574-19.264-12.574-19.264s-10.533-17.84-20.164-16.606c-9.632 1.186-2.467 14.756-2.467 14.756 15.942 3.369 22.631 11.197 24.909 15.61 2.467 4.317.427 11.007-6.31 10.533-.665 0-1.566-.095-2.468-.237-.664-.095-1.328-.238-1.755-.38-1.376-.332-2.705-.76-4.27-1.328-2.04-.807-3.796-1.756-5.172-2.705a16.156 16.156 0 0 1-1.993-1.328c-4.27-2.99-9.442-10.296-11.909-9.87-2.657.475.475 5.505 2.04 8.873 1.329 3.369 1.566 5.41-1.328 5.504-2.942.047-7.212-3.131-9.205-4.745l-4.507-4.127 4.033 6.974h-11.198c-9.868-23.676-17.223-29.796-17.223-29.796s-5.598-6.026-8.066-5.646c-2.704.427-.474 5.598-.474 5.598l13.238 29.844h-10.77l-9.395-19.832s-7.402-15.705-14.14-15.61c-3.13.047-.189 6.69-.189 6.69l12.953 29.084h-10.723s-9.442-19.358-12.573-24.672c-3.132-5.361-10.723-11.909-13.665-11.102-1.091.332-1.803.996-1.803 1.708-.427 1.044.237 2.277.237 2.277l12.763 28.468h8.304l1.565 3.464-8.303-.143 7.876 17.793h-11.007l-8.303-17.793h-5.6l-1.565-3.321h5.599l-6.453-14.471c-1.803-3.606-15.942-22.822-25.336-21.209-9.442 1.519-7.402 9.537-6.975 13.665.902 5.409 6.975 15.847 8.54 18.077 1.329 2.23 9.632 11.672 13.902 8.16 3.559-3.036 0-7.875 0-7.875s-6.737-4.365-4.27-8.968c2.467-4.982 8.303-.854 9.632 1.281 4.697 6.927 4.507 21.494-10.96 18.504-17.698-3.368-26.238-23.39-26.238-23.39s-9.395-17.129-13.238-17.224c-4.223-.427-2.23 4.697-2.23 4.697l13.902 32.739h-10.296s-3.369-7.212-9.442-20.64c-6.025-13.38-17.46-19.785-17.46-19.785-.664-2.989 2.704-1.613 2.704-1.613s4.935 2.8 9.158 7.212c0 0 .474.617.474.285 0 0-1.376-9.49 6.927-9.632.664 0 1.329.095 2.23.237.902.095 2.467.712 4.033 1.66.475.19.712.38 1.139.57 4.46 2.847 7.829 8.16 8.493 9.015 1.139 1.47.474 2.135 2.704-2.515 2.23-5.219 6.738-8.872 14.804-8.967 8.065-.142 15.467 5.74 18.361 7.97l2.23 1.851c0-10.533 8.54-10.058 8.54-10.058 6.264-.095 15.23 9.014 16.797 10.533 0 .047 0 .142.237.237v.047s-1.803-8.825 4.033-10.248c4.697-1.091 13.427 4.887 17.935 10.059 0 0 0 .19.19.237v-.142s-2.23-5.552 1.375-9.11c3.796-3.843 13.428 2.135 20.83 10.011 0 0 .237.19.237-.095l-4.508-10.39h11.008l9.631 21.35s1.993 5.884 4.935 8.161c3.321 2.61 1.091.807 2.894-2.372 3.606-5.789 9.869-1.756 9.869-1.756-6.975-17.175-2.467-23.249 5.599-25.716 0 0 9.204-3.7 22.157 9.252 0 0-1.091-4.08 1.613-6.785 2.467-2.04 7.354-4.27 13.665-2.182 8.066 2.562 12.099 12.336 13 18.789.664 6.405-2.467 14.85-2.467 14.85s-4.935 13.143-.237 16.037c5.598 3.511 5.836 5.03 4.697 6.31-.427.665-1.803.475-2.23.333m-327.176 72.114c1.802 2.04 5.361 5.55 6.737 7.306 1.993 3.18 4.27 5.6 5.124 6.31 4.935 3.939 7.639 4.224 9.205 6.454.664 1.09 10.296 15.514 13.664 21.35 3.369 5.504 11.198 16.322 9.205 18.03-1.139.902-15.23-13.522-24.672-23.628-3.369-3.464-5.362-6.785-6.738-8.35 0 0-3.985-6.786-6.263-9.632-2.23-2.847-7.591-10.913-10.058-14.377-.664-1.186-2.942-6.263-7.165-11.53-2.04-2.656-4.27-6.072-8.303-11.339-5.598-7.07-9.631-12.858-8.73-13.617.427-.427 8.73 9.347 17.223 19.833 3.606 4.412 7.639 8.92 10.77 13.19m223.862 53.894c-2.894 7.26-17.27 33.402-18.836 36.107-.901 1.47-3.558 5.978-7.164 11.387-3.132 5.03-5.836 10.486-7.402 12.858-2.894 4.745-8.493 15.278-11.435 19.643-3.131 4.365-6.927 13.996-8.493 12.43-1.565-1.47 4.46-15.941 7.165-25.098 2.704-9.158.664-12.906-.902-15.563-1.565-2.562-1.565-4.27 0-8.872 1.329-4.176 6.5-28.42 8.066-33.45 1.566-5.03 3.132-5.314 4.033-7.26 2.942-7.543 7.402-7.876 9.632-8.492 6.073-1.898 6.737-10.249 10.77-17.745 3.606-7.022 7.165-13.333 10.296-20.924 3.369-7.639 20.165-49.06 23.106-55.37.902-2.278 8.968-2.278 8.066 0-2.04 4.555-6.737 15.99-9.441 27.376-1.756 7.45 5.171 2.183.711 14.045-2.04 5.408-6.073 10.865-8.066 13.047-2.277 2.183-4.507 11.577-6.31 15.753-1.803 4.127-.902 4.317-4.46 14.234-2.704 7.164 4.934 4.792.664 15.894m95.458-67.877c-1.566 4.08-8.303 14.376-10.533 17.65-1.993 3.274-5.599 10.533-9.632 15.136-3.606 4.033-.664 5.171-4.27 8.73-2.23 2.087-9.157 8.256-10.723 9.537-1.613 1.328-7.212 6.357-10.58 9.204-3.132 2.752-10.96 8.114-10.724 11.577.238 3.511-1.565 10.249-4.032 12.479-2.04 1.613-7.402 10.533-13.902 15.704-3.132 2.705-10.106 9.774-15.23 15.942-4.935 5.884-8.73 11.245-9.87 10.486-1.565-1.091 5.836-11.435 6.5-12.668.902-1.139 9.395-15.942 10.297-19.833.901-3.938 16.843-30.84 20.164-39.143 2.04-4.887 13-11.387 17.508-19.026 4.223-7.022 5.362-5.599 7.164-5.694 4.033-.142 12.764-9.679 14.567-12.288 1.803-2.657 16.131-16.939 19.69-20.45 1.613-1.518 13-19.88 14.613-18.551 1.519 1.328-4.507 10.248-5.409 12.193-.664 1.946-4.033 4.84-5.598 9.015m15.467 23.192c-.901 1.566-7.828 11.624-10.296 14.898-4.507 5.646-.474 7.781-2.704 11.245-1.139 1.518-6.737 8.303-13.238 15.088-3.32 3.321-7.164 6.595-10.295 9.49-5.362 4.649-9.205 8.065-9.87 7.496-.9-.902 2.23-4.603 3.607-6.31 1.09-1.614 3.368-4.603 6.025-7.83 4.508-5.313.238-9.299 4.508-13.569.901-.664 12.526-13.807 15.467-16.227 4.223-3.795 19.5-21.967 20.592-23.011 1.803-1.66 4.934-5.314 5.409-4.65.664.664-.902 2.61-1.803 4.128-.902 1.566-6.263 7.544-7.402 9.252m-277.196 8.227c-1.566-3.748-1.329-8.493-1.803-10.058-.664-1.471-7.829-16.891-9.632-20.307-1.328-2.136-.901-3.037-1.328-4.223-.664-1.471.19-1.898 1.328-.807 1.329 1.376 8.968 13.095 11.435 14.519 2.23 1.47 4.46 3.606 4.697 8.682.475 5.03 3.796 6.406 6.263 9.395 2.467 2.942 5.836 6.88 7.639 10.96 1.803 4.27 3.796 1.044 7.829 7.354 3.843 6.405 12.763 22.11 14.803 25.147 1.803 3.036.427 7.449.237 11.055 0 1.945.19 6.595 1.329 11.672 1.138 4.46 3.131 9.014 4.27 11.956.901 1.85 3.558 7.497 3.369 9.727 0 .427-.902 1.09-1.803.284-3.796-3.89-11.862-17.697-14.804-19.263-6.927-3.369-9.869-11.387-11.861-14.519-1.566-2.372-3.369-6.12-6.738-10.912-2.894-4.128-6.025-10.249-7.164-12.431-1.329-2.23-1.803-4.27.427-4.27 2.277 0 .474-3.606-2.23-7.544-1.566-2.278-5.362-13.428-6.263-16.417m-211.54-48.405-14.329 11.72 6.927 17.033-15.657-9.964-14.566 11.72 4.46-17.983-15.468-9.536 18.172-1.234 4.698-17.84 7.164 17.413zm-41.677 51.228 10.533 15.61 17.935-4.887-11.862 14.282 10.059 15.42-17.27-6.785-12.1 14.234.902-18.504-16.796-6.358 17.698-4.65zm8.517 137.097 15.467 10.628 14.804-11.15-5.6 17.555 15.231 10.533-18.836.237-5.599 17.698-6.073-17.603-18.124.38 14.566-10.77zm23.528 64.536 17.27 7.64 12.29-13.95-1.993 18.314 16.796 7.497-18.125 3.7-2.467 18.552-9.205-16.084-17.697 3.843 12.336-13.475zm-34.512-132.75 13.237 13.475 16.796-8.256-8.73 16.227 12.763 13.237-18.361-3.368-9.205 16.321-2.467-18.314-17.935-3.084 16.37-7.924zm88.293 195.807 9.394-15.942 1.566 18.267 17.935 4.222-17.223 7.165 1.328 18.599-12.099-14.14-16.796 7.26 9.632-15.562-12.099-13.95zm-32.273-347.265-13.427-12.716-16.607 8.635 8.066-16.796-13.427-12.289 18.124 2.325 7.877-16.653 3.795 18.409 18.362 2.23-16.132 8.825zM655.869-176.98c-4.934 0-9.869-4.792-13.237-8.635-3.796-4.744-10.296-13.76-11.198-20.26-.664-3.463.902-4.886 2.705-4.886 4.27 0 9.869 7.354 13.237 13.664 3.322 6.927 4.887 10.865 8.92 19.643.237.474-.19.474-.427.474m419.042-300.857-16.558-8.636-13.475 13 3.368-18.076-16.131-8.683 18.361-2.42 3.606-18.41 8.066 16.702 17.935-2.562-13.238 12.478zm19.05 66.173-14.566-11.72-15.705 10.25 6.738-17.224-14.33-11.577 18.6 1.14 7.164-17.271 4.698 17.934 17.934.854-15.23 9.822zM963.09-179.712h-8.303c-4.698-9.964-8.493-18.41-12.764-27.852-1.565-3.226-3.131-8.635-2.23-11.909.427-1.85 2.895-2.277 4.935-1.613 6.263 2.23 10.533 7.592 14.329 13.38 0 .57 3.368.142 3.131-.285-4.27-8.587-13.664-17.27-22.632-17.033-2.704 0-5.598 1.66-7.164 3.938-.902 1.186-1.329 2.23-1.803 3.654-.427 2.325-.427 4.934 0 7.401-4.935-3.653-9.632-8.16-15.657-9.442-2.705-.427-6.074.617-6.738 3.511-.474 2.278-.237 4.698.664 6.738a2690.255 2690.255 0 0 1 11.008 24.814c.19.427 0 1.898-.475 2.088-.664.57-2.467.57-4.032-.664-7.64-5.694-11.435-13.095-14.804-20.687-2.23-5.124-4.697-10.2-7.164-15.183h-10.96c1.328 3.037 3.131 7.165 4.46 10.438 0 .238 0 .238 0 0-4.46-4.46-10.296-9.489-16.132-11.055-2.23-.616-4.46.19-5.599 2.278-1.328 2.088-1.803 5.124-.664 7.829 0 .142 0 .142-.237 0-4.033-4.128-8.066-7.83-13.428-9.632-6.263-1.945-11.861 2.42-7.828 11.434.854 2.42 4.033 9.253 7.354 17.413-2.657-1.186-6.263-1.186-8.066-.616-.19 0-.19 0-.19-.19-2.467-11.435-9.204-21.92-19.737-26.855-5.172-2.467-10.77-3.131-15.895.38-2.467 1.613-4.033 5.598-4.033 9.014-5.409-5.266-11.435-12.05-19.5-10.865-1.376.285-2.23 1.376-2.942 2.467-1.756 3.132-.664 6.406.474 9.11 3.796 8.113 7.165 15.8 10.96 24.957.665 1.281-1.09 2.23-2.467 1.613-3.795-1.85-6.263-3.7-8.255-7.022-1.14-1.803-2.468-3.843-3.37-5.836-3.605-7.828-7.4-16.037-10.532-23.913h-11.198c4.887 11.15 9.632 22.015 14.566 33.118.427.996.19 2.467-.474 2.8-.902.521-2.704-.333-3.796-.997-2.704-1.803-4.934-4.27-6.737-7.354a56.32 56.32 0 0 1-4.935-9.49l-8.255-18.077h-10.77c.9 2.372 2.894 7.117 4.27 9.49 0 .237-.238.426-.238.237-6.073-4.887-13.474-11.293-19.073-10.249-1.756.237-3.559 1.85-4.033 3.511-.19 2.04-.19 3.938.237 5.694 0 .237-.237.237-.427 0-4.744-4.46-8.967-8.208-14.803-9.632-3.606-.806-6.738 1.424-7.829 3.938-1.566 2.847-1.803 7.354.664 12.526 1.329 3.274 2.895 6.738 4.935 9.584-1.139-.616-3.606-.806-5.172-.616-1.565.237-2.894 1.28-3.558 2.324-.902.95-1.139 2.8-1.139 4.033.237.238-.474.238-.901 0-3.37-2.61-4.698-5.74-6.263-9.204l-9.442-21.351h-11.198l4.033 9.062c.238.142 0 .38-.19.142-5.598-5.076-12.573-10.865-18.171-9.774-1.566.285-3.37 1.85-3.606 3.417-.427 1.897-.19 3.985 0 5.788h-.427c-4.508-4.507-8.968-8.208-14.804-9.442-3.368-1.044-6.263.997-7.591 3.89-1.566 4.129-1.139 8.399.427 12.337 4.27 11.102 12.099 19.026 22.632 25.052 6.975 3.843 17.27 5.029 24.672 1.186-4.934-11.482-8.73-19.69-13.475-30.556-.427-1.044-.901-2.846.238-3.51.901-.38 1.802-.38 2.467 0 5.836 2.894 11.197 9.868 15.23 17.887l7.402 16.321h10.533l-2.894-6.168c-.238-.332-.238-.522 0-.332 3.32 2.467 6.69 6.12 10.96 8.398 1.565.76 5.361.76 4.934-1.898 0-2.372-1.803-4.223-2.942-6.5-.664-1.47-1.328-3.321-1.09-4.318.426-1.043 1.802-1.66 3.368-.427 1.566.997 2.894 1.85 4.27 3.084 2.657 2.515 6.026 4.887 9.632 6.833 7.354 3.463 17.46 5.646 24.862.949-5.172-11.482-8.968-20.07-13.902-30.935-.902-1.85-.237-2.42.237-2.895.664-.38 1.993-.57 3.559.332 4.032 1.708 11.197 9.68 14.139 15.895 2.657 5.788 5.124 11.482 8.065 17.982h10.77l-3.178-6.31.474-.19c2.895 2.61 10.296 8.635 15.895 7.354 3.131-.664 4.507-4.317 4.27-7.022 3.606 2.562 7.164 5.599 12.336 6.88 7.402 1.803 10.296-3.369 8.066-8.256-2.942-6.785-8.73-20.07-11.909-26.902-.427-.712-.427-2.23 0-2.61.712-.616 2.277 0 2.942.38 3.558 3.132 5.598 5.172 8.493 9.252.664 7.165 4.697 13.76 10.106 19.263 5.598 6.358 14.566 11.245 23.296 8.35 3.131-.948 5.172-4.08 5.836-7.116.427-1.66.901-2.467.901-4.318 4.46-3.273 10.533 2.088 13 6.12.665 1.662 1.33 3.512 1.756 4.746 2.705-.19 7.639 0 10.77 0L854.2-206.757c-.901-1.803-1.139-2.8-1.139-4.223 0-1.09 1.329-1.328 2.705-1.09 3.558.616 9.631 7.875 12.526 13.948 3.606 7.64 6.737 13.95 10.106 21.541h10.723c-4.223-10.248-9.157-21.114-12.526-29.085-.902-1.66-1.803-3.32-1.329-5.598.427-1.044 1.993-.807 2.657-.427 4.745 2.704 12.81 11.671 15.705 17.223 2.894 6.595 4.935 11.482 8.066 17.887h11.197l-2.704-6.405c4.033 3.274 8.54 6.785 13.902 7.686 2.467.332 5.598.19 6.974-2.325 1.566-2.847.665-5.883-.711-8.588-2.895-6.974-6.453-14.566-9.632-21.35-.427-1.661-.664-3.227.474-3.891 1.803-1.044 9.395 3.748 13.428 12.336 3.368 7.591 5.598 12.051 8.73 19.406h-5.599l1.566 3.32h5.599l8.303 17.84h11.007l-7.876-17.84h8.303zm-434.942-73.732c-30.508.237-30.033 25.004-28.895 28.183 1.092 3.748 3.132 7.07 6.927 7.07 3.796 0 6.928-3.132 6.928-7.07 0-2.325-1.092-4.555-3.132-5.741-4.033-2.515-3.131-5.599-3.131-5.599 0-13.19 16.796-14.234 21.303-14.234 45.691 0 40.567 75.108 80.66 100.634 1.802 1.234 3.13 0 2.04-1.233-12.574-15.753-17.271-41.089-17.271-41.089 19.5 0 32.263 18.41 32.263 31.267 0 21.968-19.737 31.125-36.77 31.125-46.83 0-67.185-32.785-67.185-50.625 0-17.935 11.435-24.388 19.5-24.388 11.388 0 14.994 7.64 13.428 11.34-2.23 5.836.902 10.675 4.46 10.675 1.376 0 6.073.238 6.073-7.97 0-7.924-11.197-15.943-23.77-15.943-12.337 0-30.224 6.69-30.224 26.286 0 39.76 49.06 54.848 77.717 53.424 32.074-1.518 50.673-17.175 50.673-33.924 0-29.938-47.494-35.063-47.494-35.063-8.303-41.563-41.23-57.362-64.1-57.125M741.705-35.807c-172.326-.095-311.723-139.683-311.723-311.866 0-46.924 12.336-99.732 34.54-143.05 40.093 37.387 145.424 156.193 157.523 170.047 18.361 20.972 26.19 7.592 36.059 19.358 5.361 6.453 8.54 8.92 10.77 10.201 3.796 2.23 8.066 7.64 10.296 9.205 2.23 1.613 6.927 8.066 10.77 11.34 3.796 3.226 11.435 8.113 19.027 14.566 7.401 6.5 20.402 21.588 34.303 21.588 16.796 0 23.724-11.292 25.1-12.668 1.328-1.329 11.624-10.391 13.19-12.147 2.04-2.04 13-10.723 18.836-10.723 6.073 0 10.296-6.5 13.475-9.679 7.164-6.5 36.296-37.198 45.928-43.698 4.27-2.941 8.255-2.42 11.624-4.887 3.179-2.42 4.745-3.985 6.738-4.555 1.803-.522 8.065 1.044 15.23-8.018 3.369-2.325 4.27-2.705 4.27-2.705s10.059-9.014 13.665-15.372c3.131-5.504 77.1-103.718 103.528-138.876 24.672 44.505 38.763 95.7 38.763 150.168 0 172.278-139.824 311.77-311.912 311.77M729.15-176.98c-4.697 0-9.869-4.792-13.237-8.635-3.796-4.744-10.059-13.76-11.198-20.26-.664-3.463.902-4.886 2.942-4.886 4.033 0 9.821 7.354 13.19 13.664a2996.354 2996.354 0 0 0 8.968 19.643c.237.474-.238.474-.665.474m102.18-.854c-4.696 1.898-10.77-7.164-15.704-16.369-4.934-9.204-8.493-20.734-4.223-22.774 4.46-2.325 10.296 7.734 15.23 16.939 4.935 9.252 8.73 20.781 4.698 22.204M692.398-20.164 706.3-7.924l15.657-9.536-7.354 17.176 13.855 12.478-18.362-1.66-6.927 16.7-4.27-17.697-18.173-1.803 15.942-9.679zm343.299-157.356-2.23-18.22 12.763 13.76 17.033-7.592-9.204 16.18 12.336 13.142-17.698-3.558-9.204 16.179-2.23-18.6-18.125-3.558zM516.267-81.86l6.5-17.508 4.698 17.793 18.599.57-15.657 10.342 4.887 18.078-14.566-11.435-14.994 10.059 6.263-16.986-14.328-11.387zm531.306-144.218 15.23-10.676-5.836-17.555 15.04 11.103 15.231-10.723-5.836 17.697 14.803 10.58-18.172-.141-5.836 17.507-5.788-17.745zm39.214-149.086 10.106-15.61 1.329 18.457 17.46 4.365-16.796 6.642 1.139 18.457-12.1-14.377-17.27 7.07 9.87-15.468-11.91-14.233zM950.991-79.525l4.697-17.792 6.737 17.413 18.6-.522-14.33 11.577 6.5 16.89-15.277-9.963-14.329 11.53 4.697-18.172-15.657-10.154zm141.623-194.753-9.205-16.322-18.362 3.559 12.763-13.427-8.967-15.99 16.843 7.924 13-13.38-2.277 18.457 16.607 7.59-17.935 3.322zM980.123-120.153l17.935-4.223 1.328-18.409 9.632 15.895 18.172-4.128-11.862 14.139 9.632 15.325-16.844-6.88-11.861 13.997 1.138-18.694zM570.717-43.807l2.894-18.457 8.303 16.56 18.172-2.942-13.237 13.095 8.066 16.796-16.37-8.493-12.762 12.858 2.941-17.887-16.369-8.54zm185.098 26.779 15.895 9.347 13.664-12.194-4.033 18.172 15.942 9.537-18.409 1.898-3.796 17.792-7.164-16.654-18.362 1.756L763.454.1zm140.499-27.14 8.065-16.463 3.132 18.266 18.362 2.99-16.322 8.635 3.132 17.792-13-12.715-16.37 8.587 8.303-16.938-13.474-12.953zM818.558-26.08l17.46 6.216 11.008-14.804-.474 18.742 17.507 6.357-17.697 5.362-.237 18.124-10.533-14.945-17.46 5.314 11.197-15.04Zm-187.555-9.456 10.96 14.661 17.507-6.263-10.533 15.373 11.198 14.898L642.2-1.992 632.14 13l-.474-18.125-17.698-5.171 17.46-6.548z" style="fill:#1e439b;fill-opacity:1;fill-rule:nonzero;stroke:none;stroke-width:47.4464" transform="matrix(1.33333 0 0 -1.33333 -487.576 36.699)"/></svg>