<?xml version="1.0" encoding="UTF-8"?>
<svg id="Layer_1" data-name="Layer 1" xmlns="http://www.w3.org/2000/svg" viewBox="0 0 1920 1080">
  <defs>
    <style>
      .cls-1 {
        fill: #000;
        stroke-width: 0px;
      }
    </style>
  </defs>
  <g>
    <path class="cls-1" d="M1830.7,3.22c-30.93,15.04-70.62,27.59-90.93,45.67-39.04,34.76-101.8,55.91-157.4,81.39-20.02,9.18-42.83,17.12-60.13,27.43-28.09,16.74-55.14,34.2-78.18,52.77-33.77,27.21-84.7,44.68-132.09,64.39-10.36,4.31-22.33,9.19-27.09,15.12-26.64,33.25-74.95,57.43-123.25,82.68-37.88,19.8-70.37,43.61-94.56,68.31-27.7,28.29-78.34,40.55-124.3,56.93-8.83,3.15-23.95,6.94-23.93,10.41.12,17.4-24.47,22.8-48.94,28.05-37.92,8.14-53.43,24.19-72.69,41.5-30.98,27.84-70.69,53.68-112.25,77.95-53.17,31.05-110.55,60.36-168.79,89.04-22.2,10.93-54.57,16.54-77.45,27.22-39.52,18.45-73.9,39.68-112.86,58.46-60.24,29.03-122.67,56.91-183.89,85.43-45.02,20.97-89.59,42.19-134.36,63.3-2.53-1.23-5.06-2.45-7.59-3.68,18.03-9.04,36.56-17.84,53.99-27.16,75.42-40.36,150.54-80.87,225.69-121.36,6.06-3.26,10.57-7.4,17.35-10.16,99.02-40.24,165.87-94.23,243.39-143.72,40.71-25.99,85.15-50.5,127.99-75.65,3.27-1.92,10.37-3.62,10.27-5.34-1.82-31.7,55.04-41.22,87.59-59.94,7.97-4.59,10.49-11.5,17.9-16.44,24.07-16.06,26.74-40.82,75.5-47.15,5.01-.65,10.29-6.04,10.79-9.4,3.14-21.17,36.27-28.16,64.84-39.04,56.01-21.33,108.43-45.11,161.29-68.48,33.91-14.99,68.73-29.87,97.79-47.1,17.62-10.45,24.5-25.41,37.27-38.07,6.26-6.2,12.94-15.72,22.85-17,59.08-7.6,74.49-36.77,112.1-54.72,27.3-13.03,56.49-25.05,84.63-37.64,18.48-8.27,35.9-17.18,55.13-24.96,9.76-3.95,24.38-4.97,33.57-9.13,50.58-22.91,99.06-47.02,150.43-69.45,43.06-18.8,89.09-35.88,133.81-53.71,2.18,1.07,4.35,2.15,6.53,3.22Z"/>
    <path class="cls-1" d="M1920,131.54c-24.19,11.53-41.85,22.52-64.08,30.08-67.28,22.88-121.02,51.54-160.59,87.25-14.76,13.32-35.31,23.4-68.84,23.42-4.51,0-11.56.98-13.16,2.58-30.73,30.86-107.55,45.7-115.56,84.67-.83,4.03-11.18,7.94-18.42,11.15-6.57,2.91-17.24,3.93-22.13,7.27-28.63,19.54-55.21,39.85-84.2,59.25-26.48,17.71-55.13,34.6-82.82,51.85-101.19,4.1-96.81,50.39-130.8,81.93-21.57,20.01-50.68,37.98-77.28,56.55-4.83,3.37-13.4,6.91-21.08,7.47-49.61,3.65-67.93,23.83-92.56,41.63-19.91,14.39-44.91,27.04-68.39,40.12-22.07,12.3-33.85,32.92-80.77,26.14-3.66-.53-9.76,1.52-13.5,3.11-65.79,28.01-121.11,60.18-171.7,95.72-38.59,27.11-73.1,58.27-136.7,74.92-10.46,2.74-16.61,9.38-25.86,13.61-44.63,20.41-90.06,40.37-134.3,61-17.07,7.96-31.88,17.16-47.41,25.94-21.87,12.35-43.22,24.94-65.26,37.22-15.62,8.71-32,17.07-48.04,25.59-3.64-1.59-7.28-3.17-10.92-4.76,22.92-13.08,45.83-26.16,68.75-39.23,33.55-19.13,64.21-39.84,101.31-57.03,68.43-31.69,125.4-67.79,181.08-105.05,49.19-32.92,105.68-63.1,160.27-93.9,10.93-6.17,31.3-8.26,41.31-14.63,24.89-15.83,46.66-32.94,69.05-49.75,25.86-19.42,46.19-41.36,77.46-58.17,79.69-42.83,165.02-82.98,246.04-125.21,18.99-9.9,26.88-25.08,45.06-35.53,33.46-19.25,70.59-36.88,106.66-54.95,5.19-2.6,17.08-3.18,18.9-5.89,24.82-36.85,105.14-48.11,142.55-79.61,23.02-19.38,55.5-35.97,84.92-53.3,7.82-4.6,20.7-6.92,30.11-10.96,26.02-11.18,59.86-20.42,75.16-34.65,24.45-22.74,61.28-37.74,98.03-53.64,9.56-4.13,24.7-6.26,30.22-11.28,35.75-32.55,109.32-39.96,159.99-62.41,1.12-.49,4.53.33,17.51,1.48Z"/>
    <path class="cls-1" d="M199.37,696.06c58.74-39.12,116.77-78.52,176.78-117.14,13.48-8.68,35.94-13.69,50.65-22.01,33.23-18.8,73.01-36.51,93.83-58.57,24.85-26.33,67.33-39.45,108.98-55.46,18.15-6.98,29.95-18.61,42.42-28.81,23.63-19.34,51.25-34.03,95.35-43.98,27.34-6.17,42.29-26.4,62.5-40.43,4.24-2.94,6.6-6.57,10.83-9.51,15.94-11.07,29.69-23.39,49.13-32.63,27.79-13.21,56.98-27.12,90.73-35.38,67.07-16.42,123.21-38.34,174.6-65.49,42.11-22.25,93.29-40.12,140.26-60.04,15.33-6.5,36.88-11.93,43.79-20.33,21.35-25.94,68.32-34.68,115.74-45.04-7.7,5.12-13.35,12.91-23.47,14.9-40.18,7.91-57.37,25.79-80.72,41.63-14.33,9.72-33.76,19.06-55.03,24.36-65.63,16.36-100.9,47.07-146.44,73.19-25.94,14.88-57.98,27.09-87.59,40.31-13.91,6.21-31.45,10.89-42.39,18.16-44.71,29.69-87,60.31-131.45,90.11-8.54,5.73-21.84,10.13-34.55,13.69-29.05,8.15-59.87,14.74-88.35,23.33-11.04,3.33-20.22,9.75-25.93,15.8-26.93,28.56-58.65,55.23-109.24,74.85-25.36,9.83-52.59,18.47-77.4,28.63-14.1,5.77-30.54,12.51-36.4,20.57-22.09,30.4-72.88,45.72-120.35,63.42-25.93,9.67-49.23,21.17-73.06,32.22-25.75,11.94-51.48,23.94-75.78,36.61-15.1,7.88-27.53,17.06-41.16,25.65-2.09-.87-4.19-1.74-6.28-2.61Z"/>
    <path class="cls-1" d="M807.57,867.99c17.29-9.54,35.34-19.77,62.98-28.32,33.64-18.56,56.18-37.43,89.84-55.98,10.2-5.62,44.11-15.6,44.11-15.6,0,0,26.06-23.61,45.75-34.83,32.08-18.28,64.02-36.63,95.21-55.28,14.3-8.55,23.37-19.41,33.88-29.47,12.62-12.07,29.28-20.38,61.18-26.79,17.48-8.59,23.13-20.71,42.44-29.04,20.43-8.81,53.24-24.39,91.51-28.66,14.88,0,17.48-5.09,42.52-19.23,20.36-11.49,61.21-48.41,77.53-62.21,14.66-12.4,39.41-16.86,75.56-23.27,18.05-15.68,42.96-24.69,68.44-33.42-21.2,18.98-44.28,31.77-72.69,47.31-4.25,10.68-38.07,24.59-63.97,31.4-12.26,3.22-17.96,12.98-26.21,19.86-24.79,20.67-49.24,41.44-74.13,62.08-2.5,2.08-6.64,4.6-10.83,5.07-53.48,6.01-65.98,29.98-88.92,49.89-15.22,13.21-33.89,25.74-54.67,36.83-8.27,4.41-28.31,2.62-39.68,6.27-33.49,10.76-69.7,20.7-96.82,34.87-42.78,22.36-78.38,48.18-118.35,71.97-15.2,9.04-34.84,16.15-51.13,24.77-28.49,15.08-54.84,31.23-84.46,45.7-10.75,5.25-63.07,24.66-77.52,27.98-2.1-1.4,30.55-20.5,28.44-21.9Z"/>
    <path class="cls-1" d="M1812.47,350.33c-46.48,19.45-121.49,66.02-167.97,85.48-3.28-1.97,30.92-22.6,27.64-24.57,46.74-19.3,67.04-32.67,113.79-51.97,3.02,1.82,23.52-10.75,26.54-8.93Z"/>
  </g>
  <path class="cls-1" d="M653.75,812.96l-23.39,20.3s-6.38,10.68-14.88,13.89c-8.5,3.21-17.01,3.21-17.01,6.41s-6.38,10.68-6.38,10.68l-21.26,11.75,31.89-13.89s4.25-7.48,12.76-9.62c8.5-2.14,25.91-8.01,25.91-8.01l8.11-8.01,4.25-11.79s12.83-19.39,14.92-20.89-14.92,9.18-14.92,9.18Z"/>
</svg>