<?xml version="1.0" encoding="UTF-8"?>
<svg id="Layer_1" data-name="Layer 1" xmlns="http://www.w3.org/2000/svg" viewBox="0 0 964.81 1080">
  <defs>
    <style>
      .cls-1 {
        fill: #000;
        stroke-width: 0px;
      }
    </style>
  </defs>
  <g>
    <path class="cls-1" d="M919.94,3.22c-15.54,15.04-35.49,27.59-45.69,45.67-19.62,34.76-51.15,55.91-79.1,81.39-10.06,9.18-21.52,17.12-30.21,27.43-14.11,16.74-27.71,34.2-39.29,52.77-16.97,27.21-42.56,44.68-66.38,64.39-5.21,4.31-11.22,9.19-13.61,15.12-13.39,33.25-37.66,57.43-61.94,82.68-19.03,19.8-35.36,43.61-47.51,68.31-13.92,28.29-39.37,40.55-62.46,56.93-4.44,3.15-12.04,6.94-12.02,10.41.06,17.4-12.3,22.8-24.59,28.05-19.05,8.14-26.85,24.19-36.53,41.5-15.57,27.84-35.52,53.68-56.41,77.95-26.72,31.05-55.55,60.36-84.82,89.04-11.16,10.93-27.42,16.54-38.92,27.22-19.86,18.45-37.13,39.68-56.72,58.46-30.27,29.03-61.64,56.91-92.41,85.43-22.62,20.97-45.02,42.19-67.52,63.3-1.27-1.23-2.54-2.45-3.82-3.68,9.06-9.04,18.37-17.84,27.13-27.16,37.9-40.36,75.65-80.87,113.41-121.36,3.04-3.26,5.31-7.4,8.72-10.16,49.76-40.24,83.35-94.23,122.31-143.72,20.46-25.99,42.79-50.5,64.32-75.65,1.64-1.92,5.21-3.62,5.16-5.34-.92-31.7,27.66-41.22,44.01-59.94,4.01-4.59,5.27-11.5,8.99-16.44,12.1-16.06,13.44-40.82,37.94-47.15,2.52-.65,5.17-6.04,5.42-9.4,1.58-21.17,18.22-28.16,32.58-39.04,28.15-21.33,54.49-45.11,81.05-68.48,17.04-14.99,34.54-29.87,49.14-47.1,8.86-10.45,12.31-25.41,18.73-38.07,3.14-6.2,6.5-15.72,11.48-17,29.69-7.6,37.43-36.77,56.33-54.72,13.72-13.03,28.39-25.05,42.53-37.64,9.29-8.27,18.04-17.18,27.7-24.96,4.91-3.95,12.25-4.97,16.87-9.13,25.42-22.91,49.78-47.02,75.59-69.45,21.64-18.8,44.77-35.88,67.24-53.71,1.09,1.07,2.19,2.15,3.28,3.22Z"/>
    <path class="cls-1" d="M964.81,131.54c-12.16,11.53-21.03,22.52-32.2,30.08-33.81,22.88-60.81,51.54-80.7,87.25-7.42,13.32-17.74,23.4-34.59,23.42-2.27,0-5.81.98-6.61,2.58-15.44,30.86-54.04,45.7-58.07,84.67-.42,4.03-5.62,7.94-9.26,11.15-3.3,2.91-8.66,3.93-11.12,7.27-14.39,19.54-27.75,39.85-42.31,59.25-13.3,17.71-27.7,34.6-41.62,51.85-50.85,4.1-48.65,50.39-65.73,81.93-10.84,20.01-25.46,37.98-38.83,56.55-2.43,3.37-6.73,6.91-10.59,7.47-24.93,3.65-34.14,23.83-46.51,41.63-10,14.39-22.57,27.04-34.37,40.12-11.09,12.3-17.01,32.92-40.59,26.14-1.84-.53-4.91,1.52-6.78,3.11-33.06,28.01-60.86,60.18-86.28,95.72-19.39,27.11-36.73,58.27-68.69,74.92-5.25,2.74-8.35,9.38-12.99,13.61-22.43,20.41-45.26,40.37-67.48,61-8.58,7.96-16.02,17.16-23.83,25.94-10.99,12.35-21.72,24.94-32.79,37.22-7.85,8.71-16.08,17.07-24.14,25.59l-5.49-4.76c11.52-13.08,23.03-26.16,34.55-39.23,16.86-19.13,32.27-39.84,50.91-57.03,34.39-31.69,63.02-67.79,90.99-105.05,24.72-32.92,53.1-63.1,80.53-93.9,5.49-6.17,15.73-8.26,20.76-14.63,12.51-15.83,23.45-32.94,34.7-49.75,12.99-19.42,23.21-41.36,38.92-58.17,40.05-42.83,82.92-82.98,123.63-125.21,9.54-9.9,13.51-25.08,22.64-35.53,16.81-19.25,35.47-36.88,53.6-54.95,2.61-2.6,8.58-3.18,9.5-5.89,12.47-36.85,52.83-48.11,71.63-79.61,11.57-19.38,27.89-35.97,42.67-53.3,3.93-4.6,10.4-6.92,15.13-10.96,13.07-11.18,30.08-20.42,37.77-34.65,12.29-22.74,30.79-37.74,49.26-53.64,4.8-4.13,12.41-6.26,15.19-11.28,17.97-32.55,54.94-39.96,80.4-62.41.56-.49,2.28.33,8.8,1.48Z"/>
    <path class="cls-1" d="M100.18,696.06c29.52-39.12,58.68-78.52,88.83-117.14,6.77-8.68,18.06-13.69,25.45-22.01,16.7-18.8,36.69-36.51,47.15-58.57,12.49-26.33,33.83-39.45,54.76-55.46,9.12-6.98,15.05-18.61,21.31-28.81,11.87-19.34,25.76-34.03,47.91-43.98,13.74-6.17,21.25-26.4,31.41-40.43,2.13-2.94,3.32-6.57,5.44-9.51,8.01-11.07,14.92-23.39,24.69-32.63,13.97-13.21,28.63-27.12,45.59-35.38,33.7-16.42,61.91-38.34,87.74-65.49,21.16-22.25,46.88-40.12,70.48-60.04,7.7-6.5,18.53-11.93,22.01-20.33,10.73-25.94,34.33-34.68,58.16-45.04-3.87,5.12-6.71,12.91-11.79,14.9-20.19,7.91-28.83,25.79-40.56,41.63-7.2,9.72-16.96,19.06-27.65,24.36-32.98,16.36-50.7,47.07-73.58,73.19-13.03,14.88-29.13,27.09-44.01,40.31-6.99,6.21-15.8,10.89-21.3,18.16-22.47,29.69-43.72,60.31-66.05,90.11-4.29,5.73-10.98,10.13-17.36,13.69-14.6,8.15-30.09,14.74-44.4,23.33-5.55,3.33-10.16,9.75-13.03,15.8-13.53,28.56-29.47,55.23-54.89,74.85-12.75,9.83-26.43,18.47-38.9,28.63-7.09,5.77-15.35,12.51-18.29,20.57-11.1,30.4-36.62,45.72-60.48,63.42-13.03,9.67-24.74,21.17-36.71,32.22-12.94,11.94-25.87,23.94-38.08,36.61-7.59,7.88-13.84,17.06-20.69,25.65-1.05-.87-2.11-1.74-3.16-2.61Z"/>
    <path class="cls-1" d="M405.81,867.99c8.69-9.54,17.76-19.77,31.65-28.32,16.9-18.56,28.23-37.43,45.15-55.98,5.12-5.62,22.17-15.6,22.17-15.6,0,0,13.09-23.61,22.99-34.83,16.12-18.28,32.17-36.63,47.84-55.28,7.18-8.55,11.74-19.41,17.02-29.47,6.34-12.07,14.72-20.38,30.74-26.79,8.78-8.59,11.62-20.71,21.33-29.04,10.27-8.81,26.75-24.39,45.99-28.66,7.48,0,8.78-5.09,21.37-19.23,10.23-11.49,30.76-48.41,38.96-62.21,7.37-12.4,19.8-16.86,37.97-23.27,9.07-15.68,21.59-24.69,34.39-33.42-10.65,18.98-22.25,31.77-36.53,47.31-2.14,10.68-19.13,24.59-32.15,31.4-6.16,3.22-9.02,12.98-13.17,19.86-12.45,20.67-24.74,41.44-37.25,62.08-1.26,2.08-3.34,4.6-5.44,5.07-26.87,6.01-33.16,29.98-44.69,49.89-7.65,13.21-17.03,25.74-27.47,36.83-4.16,4.41-14.22,2.62-19.94,6.27-16.83,10.76-35.03,20.7-48.65,34.87-21.5,22.36-39.39,48.18-59.47,71.97-7.64,9.04-17.51,16.15-25.69,24.77-14.32,15.08-27.56,31.23-42.44,45.7-5.4,5.25-31.69,24.66-38.96,27.98-1.06-1.4,15.35-20.5,14.29-21.9Z"/>
    <path class="cls-1" d="M910.78,350.33c-23.36,19.45-61.05,66.02-84.41,85.48-1.65-1.97,15.54-22.6,13.89-24.57,23.49-19.3,33.69-32.67,57.18-51.97,1.52,1.82,11.82-10.75,13.34-8.93Z"/>
  </g>
  <path class="cls-1" d="M328.51,812.96l-11.75,20.3s-3.21,10.68-7.48,13.89c-4.27,3.21-8.55,3.21-8.55,6.41s-3.21,10.68-3.21,10.68l-10.68,11.75,16.03-13.89s2.14-7.48,6.41-9.62,13.02-8.01,13.02-8.01l4.08-8.01,2.14-11.79s6.45-19.39,7.5-20.89-7.5,9.18-7.5,9.18Z"/>
</svg>