<?xml version="1.0" standalone="no"?>
<!DOCTYPE svg PUBLIC "-//W3C//DTD SVG 20010904//EN"
 "http://www.w3.org/TR/2001/REC-SVG-20010904/DTD/svg10.dtd">
<svg version="1.0" xmlns="http://www.w3.org/2000/svg"
 width="844.000000pt" height="1280.000000pt" viewBox="0 0 844.000000 1280.000000"
 preserveAspectRatio="xMidYMid meet">
<metadata>
Created by potrace 1.15, written by Peter Selinger 2001-2017
</metadata>
<g transform="translate(0.000000,1280.000000) scale(0.100000,-0.100000)"
fill="#000000" stroke="none">
<path d="M6085 12794 c-135 -19 -241 -57 -275 -99 -13 -15 -11 -20 15 -42 65
-53 565 -280 1185 -538 311 -129 417 -169 540 -207 41 -12 151 -61 245 -107
238 -120 287 -142 278 -128 -4 6 -31 45 -61 85 -54 73 -102 164 -102 193 -1
98 -518 570 -755 689 -124 62 -312 108 -575 140 -91 11 -445 21 -495 14z"/>
<path d="M5705 12498 c58 -36 164 -87 575 -275 703 -322 1066 -475 1248 -529
8 -2 19 -18 25 -34 10 -27 16 -30 53 -30 57 0 145 -28 305 -98 173 -76 238
-97 251 -84 6 6 8 17 5 24 -7 20 -192 113 -402 204 -99 42 -337 147 -530 231
-192 85 -420 181 -505 213 -85 32 -301 118 -480 193 -323 133 -546 217 -578
217 -9 0 6 -15 33 -32z"/>
<path d="M5430 12430 c37 -30 450 -232 720 -353 292 -130 524 -228 935 -395
176 -71 478 -199 670 -285 428 -190 515 -221 515 -184 0 18 -49 44 -365 190
-377 174 -611 278 -970 432 -170 73 -429 187 -575 252 -384 174 -729 311 -871
348 -76 20 -89 19 -59 -5z"/>
<path d="M5270 12306 c0 -35 1520 -711 1800 -801 101 -32 203 -77 473 -207
147 -71 306 -141 353 -157 70 -22 88 -33 104 -59 13 -22 29 -32 52 -36 18 -3
62 -10 97 -15 39 -6 88 -24 128 -46 36 -20 68 -33 71 -30 30 30 -232 166 -833
433 -198 88 -535 240 -750 337 -712 323 -1138 497 -1385 565 -71 19 -110 25
-110 16z"/>
<path d="M5225 12135 c46 -39 336 -178 690 -330 176 -76 399 -174 495 -217
398 -182 1105 -486 1242 -533 57 -20 217 -90 357 -157 140 -66 283 -131 317
-144 l62 -23 5 26 c10 55 -33 78 -568 303 -187 78 -456 192 -598 252 -143 60
-279 115 -303 123 -24 7 -87 40 -141 73 -120 73 -282 155 -512 257 -420 186
-920 375 -1032 390 l-44 6 30 -26z"/>
<path d="M5020 12043 c0 -29 861 -426 1475 -678 77 -32 197 -86 266 -121 145
-72 218 -103 752 -319 214 -86 488 -201 610 -255 242 -107 287 -123 308 -109
11 8 8 15 -16 35 -70 58 -549 274 -955 429 -266 102 -333 132 -635 282 -132
65 -312 152 -400 193 -610 280 -1405 588 -1405 543z"/>
<path d="M4945 11863 c39 -20 192 -92 340 -160 360 -166 589 -284 649 -333 49
-40 61 -45 90 -34 24 9 19 28 -14 52 -16 13 -36 38 -44 56 -17 41 -58 73 -155
121 -156 78 -864 336 -919 335 -9 -1 15 -17 53 -37z"/>
<path d="M4781 11761 c-29 -19 18 -49 199 -125 63 -27 253 -112 423 -188 349
-157 401 -178 440 -178 20 0 27 5 27 20 0 42 -66 83 -190 120 -41 12 -136 51
-210 86 -74 35 -175 75 -224 90 -96 27 -165 59 -234 106 -71 49 -202 88 -231
69z"/>
<path d="M4552 11523 c-65 -97 -155 -253 -171 -295 -10 -26 -7 -30 42 -66 63
-47 125 -86 327 -210 176 -107 412 -264 610 -405 157 -112 247 -167 273 -167
59 0 276 265 342 418 18 42 18 45 0 115 -54 212 -68 233 -183 266 -37 11 -116
33 -175 51 -113 32 -213 76 -237 105 -22 26 -71 48 -128 56 -32 4 -70 19 -99
38 -80 53 -446 181 -519 181 -19 0 -36 -18 -82 -87z"/>
<path d="M6213 11344 c-12 -31 46 -68 295 -190 217 -107 280 -144 244 -144
-27 0 -159 52 -309 122 -94 44 -180 78 -190 76 -27 -5 -29 -65 -3 -106 11 -18
41 -47 66 -65 l46 -32 -59 -10 c-53 -9 -58 -12 -61 -38 -2 -15 4 -62 12 -103
9 -42 16 -95 16 -118 0 -56 15 -105 42 -134 55 -58 269 -140 335 -127 55 10
120 47 196 109 93 78 92 89 -20 165 -49 32 -99 71 -113 86 l-25 27 33 -7 c18
-4 70 -24 115 -45 124 -58 160 -67 192 -46 48 32 31 54 -87 109 -98 47 -159
117 -102 117 8 0 84 -27 169 -60 85 -33 163 -60 174 -60 36 0 27 44 -16 78
-157 122 -799 412 -912 412 -19 0 -34 -6 -38 -16z"/>
<path d="M4121 10824 c-112 -94 -343 -450 -327 -502 11 -35 61 -70 221 -157
386 -211 596 -396 504 -446 -33 -17 -75 -4 -214 66 -168 85 -365 204 -477 288
-49 37 -96 67 -103 67 -8 0 -14 -21 -18 -57 -5 -47 -26 -97 -106 -258 -62
-122 -107 -226 -117 -268 -16 -66 -16 -69 3 -95 32 -44 102 -84 353 -201 382
-179 399 -182 491 -96 61 56 137 104 267 169 128 64 189 137 336 398 84 149
221 428 231 469 13 52 -114 144 -565 414 -403 240 -393 235 -423 235 -14 0
-39 -12 -56 -26z"/>
<path d="M7483 10814 c-32 -14 5 -73 66 -104 43 -22 164 -60 192 -60 59 0 45
43 -28 87 -91 55 -198 91 -230 77z"/>
<path d="M7822 10644 c4 -21 260 -157 410 -218 93 -38 191 -56 202 -38 16 26
-193 142 -254 142 -19 0 -85 25 -159 59 -69 33 -143 63 -164 67 -35 6 -39 4
-35 -12z"/>
<path d="M7429 10619 c-9 -18 -7 -25 13 -46 35 -34 188 -71 188 -45 0 12 -93
80 -133 97 -47 20 -54 19 -68 -6z"/>
<path d="M7229 10496 c-77 -30 -179 -108 -204 -156 -23 -45 -35 -149 -36 -314
-2 -140 0 -158 20 -200 38 -78 97 -100 361 -136 85 -12 180 -28 212 -36 61
-15 159 -21 177 -10 17 11 14 30 -20 116 -32 85 -49 100 -50 48 0 -18 -4 -42
-8 -52 -13 -33 -32 36 -38 134 -4 69 -1 98 16 154 32 104 9 148 -30 59 -41
-93 -57 -118 -77 -121 -13 -2 -25 5 -32 18 -14 26 8 94 45 138 61 74 71 158
24 208 -44 46 -119 22 -119 -38 0 -49 9 -58 56 -58 62 0 65 -18 16 -89 -45
-64 -76 -134 -87 -198 -13 -80 -27 -63 -66 81 -28 103 -23 148 31 279 49 119
48 122 -23 158 -50 26 -122 32 -168 15z m53 -228 c-19 -19 -14 -45 21 -108 25
-47 29 -62 20 -71 -16 -16 -47 11 -74 63 -26 51 -25 93 3 112 26 19 47 21 30
4z"/>
<path d="M6020 10351 c-57 -60 -146 -195 -262 -399 -107 -188 -160 -269 -190
-290 -24 -18 -53 -75 -68 -139 -11 -47 -10 -56 7 -85 28 -49 91 -66 281 -77
184 -10 217 -20 258 -82 21 -31 38 -45 57 -47 24 -3 28 1 34 28 9 48 37 55
178 41 148 -14 201 -14 225 -1 37 20 55 138 96 601 13 154 -11 217 -106 280
-104 69 -377 201 -425 207 -43 4 -48 3 -85 -37z"/>
<path d="M7957 10376 c-9 -23 29 -54 89 -72 59 -17 86 -11 82 19 -5 32 -52 60
-111 65 -43 3 -55 1 -60 -12z"/>
<path d="M8187 10323 c-18 -17 -5 -52 28 -77 40 -31 124 -70 173 -81 47 -10
42 15 -15 65 -80 71 -166 114 -186 93z"/>
<path d="M5318 10133 c-20 -23 -106 -189 -187 -362 -118 -254 -141 -332 -106
-361 12 -10 20 -9 39 3 71 47 204 241 317 463 78 153 81 180 21 235 -46 43
-62 47 -84 22z"/>
<path d="M7850 10112 c0 -42 27 -132 40 -132 21 0 27 104 8 145 -6 14 -19 25
-30 25 -14 0 -18 -8 -18 -38z"/>
<path d="M8016 10137 c-23 -17 -17 -48 11 -62 50 -25 69 -65 56 -115 -6 -22
-8 -21 -43 20 -23 27 -42 41 -52 38 -19 -8 -81 -125 -72 -139 4 -7 25 -9 62
-4 l55 7 -8 -49 c-17 -103 -16 -106 39 -120 48 -12 66 -25 66 -50 0 -15 -39
-43 -61 -43 -22 0 -32 -26 -19 -51 30 -55 229 -91 300 -54 17 9 39 34 50 56
27 51 44 190 37 301 -8 149 -59 216 -195 258 -75 23 -199 27 -226 7z m152
-191 c-3 -114 -6 -138 -22 -155 -20 -22 -42 -26 -65 -12 -11 7 -8 28 22 119
20 60 39 126 42 146 4 20 12 36 17 36 7 0 9 -48 6 -134z"/>
<path d="M6935 9478 c-13 -40 -118 -717 -123 -791 -4 -75 -2 -90 13 -107 17
-19 20 -19 36 -4 87 78 182 819 115 893 -22 24 -35 27 -41 9z"/>
<path d="M7260 9371 c-5 -11 -10 -39 -10 -63 -1 -85 -29 -257 -79 -475 -28
-121 -52 -239 -53 -260 -1 -46 15 -71 81 -126 73 -60 143 -90 214 -92 55 -1
75 -8 179 -63 67 -35 131 -62 147 -62 21 0 54 -18 111 -62 94 -73 167 -117
193 -118 30 0 64 47 81 113 51 199 77 319 74 338 -5 37 -48 58 -223 108 -288
83 -450 159 -450 210 0 31 41 44 104 35 l44 -6 -6 74 c-3 40 -9 82 -13 93 -17
47 11 0 40 -66 39 -90 59 -105 90 -66 28 35 36 34 36 -6 0 -46 23 -73 67 -82
21 -4 103 -31 182 -62 167 -63 183 -63 211 0 19 43 60 275 60 338 0 69 -43 99
-201 137 -135 34 -449 99 -638 133 -96 17 -185 35 -198 40 -32 12 -31 12 -43
-10z"/>
<path d="M4860 9130 c-178 -22 -283 -82 -370 -210 -92 -136 -138 -267 -147
-420 -10 -184 42 -327 161 -445 111 -110 235 -160 417 -172 282 -17 519 140
606 402 24 72 27 95 27 230 0 137 -2 157 -27 231 -95 284 -341 426 -667 384z
m152 -231 c122 -26 247 -120 298 -224 21 -43 25 -64 25 -145 0 -85 -3 -101
-29 -152 -78 -155 -283 -272 -441 -253 -114 15 -215 86 -265 189 -109 220 30
525 264 582 66 16 84 16 148 3z"/>
<path d="M4885 8675 c-99 -50 -110 -205 -20 -284 72 -63 168 -44 226 46 26 40
30 55 26 95 -5 59 -41 109 -100 137 -51 25 -90 26 -132 6z"/>
<path d="M5722 9078 c-19 -19 -15 -39 29 -129 59 -120 87 -243 104 -446 14
-177 23 -209 67 -250 48 -45 293 -173 331 -173 43 0 179 394 252 732 28 131
25 158 -22 181 -49 24 -117 37 -376 67 -273 32 -366 37 -385 18z"/>
<path d="M3368 9054 c-1 -5 -2 -66 -3 -135 0 -124 -1 -128 -26 -151 -39 -36
-54 -91 -54 -199 0 -106 15 -144 60 -155 34 -8 55 11 55 52 0 45 15 50 41 14
28 -38 59 -39 139 -5 50 21 90 25 90 8 0 -16 -25 -45 -52 -59 -27 -14 -29 -18
-16 -31 9 -8 31 -18 51 -23 31 -7 40 -4 64 17 24 23 33 25 82 20 115 -10 156
-52 201 -207 31 -106 71 -197 134 -303 74 -126 93 -167 101 -210 9 -46 1 -47
-62 -7 -26 17 -51 30 -55 30 -19 0 -5 -52 23 -85 32 -36 35 -62 14 -150 l-8
-30 25 23 c50 46 128 221 128 288 0 44 -7 58 -85 159 -140 183 -193 385 -166
624 15 124 7 156 -51 205 -41 36 -235 143 -443 246 -118 59 -183 81 -187 64z"/>
<path d="M6707 8308 c-38 -51 -51 -81 -110 -263 -66 -206 -127 -347 -214 -497
-93 -161 -125 -234 -127 -291 -1 -42 3 -52 27 -73 15 -13 35 -24 43 -24 34 0
164 244 309 585 144 335 187 496 153 570 -16 36 -51 33 -81 -7z"/>
<path d="M3235 8168 c-21 -51 -47 -147 -43 -159 2 -6 15 6 28 27 14 21 36 45
50 53 23 12 32 11 97 -18 80 -35 103 -38 103 -15 0 20 -52 67 -121 110 -72 44
-96 44 -114 2z"/>
<path d="M6997 8146 c-8 -8 -17 -37 -20 -64 -16 -132 -290 -784 -376 -892 -67
-85 -65 -105 20 -184 95 -88 563 -404 716 -484 l73 -37 29 30 c64 65 224 340
246 422 9 33 -35 70 -270 227 -199 133 -285 203 -285 231 0 49 203 -28 417
-157 89 -53 204 -108 226 -108 28 0 127 269 182 493 19 76 22 104 14 127 -19
53 -104 96 -539 270 -318 127 -406 152 -433 126z"/>
<path d="M3874 8066 c-23 -18 -12 -42 29 -66 33 -19 61 -5 65 32 3 21 -3 28
-29 37 -40 14 -41 14 -65 -3z"/>
<path d="M5660 7948 c-32 -21 -52 -47 -115 -149 -29 -47 -63 -68 -123 -78 -30
-4 -66 -18 -80 -30 -42 -33 -70 -42 -162 -53 -107 -11 -130 -21 -130 -51 0
-53 134 -191 404 -417 174 -146 233 -190 251 -190 41 0 425 688 441 792 6 34
3 38 -36 67 -70 51 -244 111 -361 126 -47 6 -59 3 -89 -17z"/>
<path d="M4025 7867 c-10 -37 -1 -120 12 -124 19 -7 63 43 63 70 0 21 -46 77
-63 77 -4 0 -9 -10 -12 -23z"/>
<path d="M3187 7873 c-14 -13 -6 -79 13 -110 10 -18 37 -44 58 -58 44 -29 142
-69 142 -57 -1 4 -23 25 -50 46 -34 27 -53 50 -60 74 -5 20 -26 53 -47 74 -38
39 -45 43 -56 31z"/>
<path d="M4524 7601 c-32 -49 -101 -251 -116 -342 -10 -54 -9 -70 1 -83 19
-23 37 -20 59 12 52 74 127 381 106 435 -10 26 -21 21 -50 -22z"/>
<path d="M3940 7402 c0 -16 188 -114 212 -110 46 6 36 90 -13 107 -37 13 -199
15 -199 3z"/>
<path d="M4790 7315 c-10 -11 -11 -46 -6 -138 7 -129 0 -171 -43 -289 -28 -77
-27 -120 4 -155 13 -15 25 -22 25 -15 0 19 32 14 94 -13 31 -14 58 -25 61 -25
2 0 1 24 -1 53 -7 64 27 140 63 145 30 4 37 -28 23 -107 -13 -75 -8 -97 28
-109 22 -7 27 -15 27 -42 0 -27 6 -37 33 -53 29 -17 83 -24 123 -15 22 5 13
-44 -13 -66 -18 -14 -34 -17 -70 -14 -27 3 -45 1 -42 -4 15 -25 109 -88 130
-88 29 0 144 106 209 192 52 69 57 104 24 158 -41 67 -360 368 -552 522 -54
43 -99 78 -101 78 -2 0 -9 -7 -16 -15z"/>
<path d="M3095 7300 c-11 -18 13 -46 63 -73 77 -42 130 -30 102 24 -23 41
-147 79 -165 49z"/>
<path d="M6074 6931 c-45 -27 -84 -79 -155 -204 -35 -62 -109 -180 -165 -263
-91 -137 -144 -238 -144 -279 0 -9 9 -15 22 -15 41 0 271 259 328 370 16 30
60 93 100 140 105 127 132 195 94 248 -19 27 -39 28 -80 3z"/>
<path d="M4246 6814 c-3 -9 -6 -40 -6 -70 0 -65 18 -79 56 -44 32 31 31 70 -4
103 -33 31 -38 33 -46 11z"/>
<path d="M6318 6713 c-19 -21 -64 -87 -98 -148 -91 -160 -236 -369 -307 -444
l-62 -65 11 -43 c12 -51 57 -103 88 -103 28 0 60 -18 60 -33 0 -31 118 -116
141 -102 6 4 9 48 8 106 -1 55 1 102 4 105 2 3 23 -18 47 -46 23 -27 46 -50
51 -50 15 0 41 69 34 90 -3 10 -17 21 -30 24 -24 6 -41 38 -30 56 10 17 43 -7
144 -107 61 -60 106 -96 124 -100 20 -4 34 -16 45 -40 50 -105 -111 -25 -185
93 -15 24 -31 44 -35 44 -10 0 -20 -97 -16 -168 l3 -67 -32 1 c-38 2 -42 -11
-18 -56 17 -33 36 -38 55 -15 18 22 54 18 110 -10 78 -39 109 -29 80 26 -16
30 14 24 39 -7 16 -20 18 -31 11 -45 -18 -33 -48 -42 -121 -35 -85 9 -90 -3
-25 -72 31 -33 52 -46 72 -47 23 0 38 -13 82 -70 30 -38 61 -74 69 -78 19 -11
39 6 74 68 35 61 37 82 7 81 -20 -1 -23 4 -23 34 0 35 0 35 50 38 80 5 102 39
69 105 -9 17 -98 115 -198 217 -100 102 -196 203 -213 225 -39 51 -76 125 -63
125 6 0 51 -24 100 -54 50 -30 121 -66 159 -81 73 -28 97 -44 211 -144 85 -74
144 -105 173 -90 74 40 257 294 257 357 0 27 -65 80 -255 206 -261 174 -577
356 -617 356 -8 0 -30 -17 -50 -37z"/>
<path d="M5276 5908 c-21 -30 -21 -97 -1 -105 22 -8 129 50 134 72 9 48 -103
76 -133 33z"/>
<path d="M5570 5692 c0 -36 309 -335 380 -368 19 -9 114 -94 210 -189 188
-184 212 -204 236 -184 8 6 14 17 14 24 0 23 -42 66 -89 90 -30 15 -107 82
-207 182 -159 158 -368 340 -476 414 -59 41 -68 45 -68 31z"/>
<path d="M1590 4693 c-88 -89 -114 -132 -112 -186 2 -34 0 -38 -18 -32 -31 10
-59 -4 -76 -36 -15 -30 -15 -30 5 -19 27 14 43 5 100 -54 50 -51 86 -67 158
-68 88 -2 158 57 178 150 11 51 22 38 27 -33 3 -36 13 -77 23 -91 16 -25 16
-26 -4 -19 -24 7 -61 -10 -61 -29 0 -20 -49 -38 -123 -44 -37 -2 -70 -9 -73
-14 -3 -5 13 -29 36 -54 23 -25 51 -65 61 -90 24 -52 64 -94 159 -160 38 -27
70 -52 70 -56 0 -4 -33 4 -72 18 -83 28 -218 64 -242 64 -12 0 -16 -10 -16
-34 0 -26 -10 -46 -40 -81 -22 -25 -40 -52 -40 -59 0 -18 65 -102 85 -110 36
-13 80 -4 183 38 168 68 241 83 484 96 102 5 178 14 195 22 45 22 38 84 -20
200 -85 172 -243 355 -507 591 -227 202 -244 206 -360 90z m371 -659 c24 -12
29 -19 23 -37 -3 -12 -7 -23 -8 -24 -4 -5 -196 63 -196 70 0 14 150 7 181 -9z"/>
<path d="M1165 4191 c-44 -27 -102 -92 -200 -221 -94 -123 -119 -170 -110
-200 3 -11 43 -45 88 -76 45 -31 145 -103 222 -159 158 -116 198 -139 225
-130 29 9 80 73 80 101 0 25 -66 101 -110 124 -21 11 -22 10 -15 -19 5 -25 2
-35 -19 -56 -14 -14 -34 -25 -46 -25 -30 0 -26 40 15 130 38 85 42 105 21 113
-29 11 -56 -4 -56 -33 0 -30 -18 -40 -77 -40 -41 0 -42 -11 -3 -33 57 -34 65
-87 12 -87 -47 0 -92 63 -92 131 0 40 -12 36 -46 -13 l-29 -43 -3 42 c-3 41
14 83 79 193 15 26 19 46 15 77 -4 33 -3 41 8 37 28 -11 39 -62 33 -150 -6
-82 -1 -98 22 -70 20 23 102 53 180 65 120 19 167 49 178 115 7 46 -7 46 -38
1 -29 -43 -38 -44 -45 -5 -4 17 -10 30 -14 30 -3 0 -17 -22 -30 -50 -27 -59
-40 -63 -40 -16 0 47 -24 69 -67 61 -29 -5 -34 -3 -43 20 -6 15 -10 55 -10 90
0 111 -22 136 -85 96z"/>
<path d="M2890 3759 c0 -41 184 -465 231 -530 11 -16 29 -29 39 -29 37 0 180
196 180 246 0 37 -165 170 -351 282 -87 52 -99 56 -99 31z"/>
<path d="M2385 3564 c-164 -24 -316 -67 -456 -128 -98 -43 -255 -144 -299
-192 l-25 -26 24 7 c28 9 124 64 201 115 146 99 187 109 490 120 135 5 259 13
275 18 40 11 39 40 -1 64 -31 18 -149 31 -209 22z"/>
<path d="M590 3427 c-61 -42 -230 -287 -230 -332 0 -12 10 -31 23 -43 26 -24
256 -136 264 -128 3 3 -18 31 -46 64 -28 32 -51 62 -51 65 0 4 39 4 88 1 76
-6 90 -4 110 13 33 26 32 94 -2 161 -36 71 -33 74 18 20 24 -27 50 -48 58 -48
7 0 21 12 30 27 14 23 18 25 23 12 16 -41 -17 -104 -128 -245 -22 -28 -15 -44
20 -44 36 0 92 64 123 141 30 74 84 139 102 121 9 -9 9 -26 0 -72 -7 -34 -15
-67 -19 -75 -9 -24 16 -17 63 17 48 35 63 33 91 -9 14 -21 13 -22 -15 -21 -46
1 -129 -51 -216 -135 -45 -43 -73 -76 -64 -73 27 8 48 -21 48 -65 0 -114 -53
-115 -357 -3 -94 35 -192 69 -218 76 l-47 13 -30 -35 c-71 -85 -188 -330 -191
-402 -2 -40 0 -43 35 -60 115 -55 1017 -262 1063 -244 16 6 17 16 12 84 -6 90
-29 209 -59 304 -29 95 -49 106 -76 45 -14 -34 -52 -52 -88 -43 l-27 7 20 22
c28 31 33 51 23 88 -13 43 -7 46 30 16 30 -26 49 -27 78 -4 29 23 54 94 93
270 54 246 59 234 -181 394 -211 141 -299 169 -370 120z m420 -542 c0 26 27
65 44 65 40 0 16 -127 -34 -183 -32 -36 -46 -33 -31 7 9 23 7 28 -17 43 -38
25 -42 32 -42 88 l0 50 40 -45 c32 -36 39 -41 40 -25z m-172 -267 c7 -7 12
-26 11 -42 -1 -38 -23 -101 -35 -101 -12 0 -33 62 -33 101 -1 30 14 54 34 54
6 0 16 -5 23 -12z"/>
<path d="M3561 3196 c-103 -140 -176 -264 -205 -351 -33 -95 -14 -213 44 -275
34 -37 83 -40 150 -9 64 30 110 40 133 27 16 -8 18 -17 13 -52 -5 -33 -3 -48
11 -64 41 -47 93 -31 93 29 0 42 16 36 44 -19 37 -73 72 -104 115 -100 35 3
36 4 34 41 -2 30 1 37 16 37 25 0 48 -29 67 -83 19 -57 46 -79 80 -67 24 10
28 7 49 -35 16 -30 103 -33 160 -5 52 25 65 53 38 82 -10 11 -171 96 -358 188
-421 207 -540 282 -494 311 8 5 71 9 141 9 101 0 138 4 177 19 28 10 52 16 55
14 3 -3 3 -18 0 -33 -9 -41 20 -76 91 -111 43 -21 80 -31 115 -32 46 -2 55 1
74 26 25 31 36 27 36 -12 0 -76 202 -186 306 -166 40 7 80 40 89 73 15 52
-166 186 -301 223 -69 19 -106 39 -270 145 -218 141 -406 244 -443 244 -13 0
-35 -20 -60 -54z m884 -486 c21 -24 14 -46 -20 -62 -30 -14 -72 -2 -89 24 -28
45 71 80 109 38z"/>
<path d="M2200 3144 c-277 -72 -444 -309 -426 -604 20 -353 278 -590 640 -590
180 0 289 43 407 160 56 55 86 95 113 150 120 246 71 509 -133 710 -93 93
-182 145 -296 175 -74 19 -231 19 -305 -1z m279 -209 c234 -56 368 -258 317
-478 -21 -91 -67 -178 -116 -220 -73 -63 -224 -90 -350 -63 -248 52 -404 249
-369 465 24 155 113 256 259 297 63 17 183 17 259 -1z"/>
<path d="M2322 2675 c-39 -17 -62 -61 -62 -119 0 -89 35 -128 118 -129 62 -1
107 24 121 65 33 99 -86 221 -177 183z"/>
<path d="M1396 2853 c-14 -36 -27 -224 -21 -308 16 -232 42 -402 72 -458 14
-28 80 -66 116 -67 30 0 20 38 -39 147 -69 129 -81 189 -89 450 -3 103 -8 203
-11 221 -5 35 -18 42 -28 15z"/>
<path d="M3305 2206 c-13 -13 -40 -57 -61 -97 -56 -113 -130 -213 -205 -280
-38 -34 -69 -68 -69 -76 0 -32 147 -78 491 -154 115 -26 168 -32 264 -33 114
-1 122 0 167 27 78 45 268 282 268 333 0 54 -56 83 -369 185 -403 131 -442
139 -486 95z"/>
<path d="M75 1990 c-23 -4 -36 -16 -55 -52 -60 -113 10 -151 439 -239 287 -58
330 -69 471 -114 58 -18 124 -36 146 -40 57 -9 119 10 159 48 38 36 89 127 78
138 -11 10 -269 68 -523 119 -113 23 -290 62 -395 87 -211 50 -276 61 -320 53z"/>
<path d="M92 1650 c27 -16 318 -97 374 -105 123 -16 36 38 -118 75 -71 16
-230 41 -263 40 -5 0 -2 -5 7 -10z"/>
<path d="M1652 1592 c-84 -30 -128 -84 -95 -118 41 -41 214 -105 348 -128 91
-16 210 -21 239 -10 41 16 -4 148 -68 201 -57 46 -125 65 -256 70 -94 3 -124
0 -168 -15z"/>
<path d="M640 1523 c0 -6 57 -29 128 -51 227 -73 246 -75 240 -25 -2 22 -13
33 -53 53 -44 22 -66 25 -182 28 -82 3 -133 1 -133 -5z"/>
<path d="M2429 1459 c-29 -56 53 -170 161 -222 31 -15 105 -35 170 -47 63 -12
222 -43 353 -71 288 -60 335 -64 399 -26 53 31 168 137 168 154 0 6 -19 14
-42 18 -24 4 -243 47 -488 95 -421 84 -625 120 -683 120 -17 0 -31 -8 -38 -21z"/>
<path d="M260 1439 c0 -18 337 -114 506 -143 99 -18 194 -21 194 -7 0 13 -69
35 -220 70 -227 54 -480 96 -480 80z"/>
<path d="M1448 1353 c-75 -19 104 -83 432 -154 201 -43 320 -59 320 -41 0 28
-160 92 -360 142 -198 50 -333 69 -392 53z"/>
<path d="M370 1235 c17 -21 165 -65 465 -139 372 -92 1028 -244 1175 -273 150
-29 280 -41 280 -25 0 19 -81 41 -565 152 -170 39 -474 110 -675 156 -649 151
-707 162 -680 129z"/>
<path d="M1285 1201 c-4 -7 -5 -15 -2 -18 14 -14 823 -202 907 -211 50 -5 54
-4 42 11 -8 9 -39 26 -70 37 -133 50 -655 170 -809 186 -42 5 -62 3 -68 -5z"/>
<path d="M2623 1114 c-23 -10 -14 -21 35 -42 140 -60 732 -169 772 -142 21 14
5 24 -105 59 -234 76 -648 149 -702 125z"/>
<path d="M450 1045 c0 -37 1120 -313 1760 -434 379 -71 537 -93 514 -72 -35
34 -1766 424 -2246 506 -16 2 -28 2 -28 0z"/>
<path d="M2610 913 c0 -15 71 -40 175 -62 136 -30 369 -63 412 -59 l38 4 -30
13 c-123 52 -595 135 -595 104z"/>
<path d="M233 899 c-32 -32 -5 -98 86 -211 80 -100 196 -208 251 -234 25 -12
71 -30 103 -40 32 -9 123 -57 203 -105 80 -49 162 -91 183 -95 20 -4 97 -35
172 -70 257 -120 397 -152 609 -141 209 12 426 65 580 142 75 37 229 130 264
159 78 65 35 77 -1154 342 -1190 264 -1271 280 -1297 253z"/>
<path d="M2396 772 c-12 -19 370 -102 469 -102 49 1 49 1 25 15 -36 21 -143
54 -230 71 -105 20 -256 29 -264 16z"/>
</g>
</svg>
